<svg width="470" height="202" viewBox="0 0 470 202" fill="none" xmlns="http://www.w3.org/2000/svg">
<path d="M297.232 47.2328C282.698 54.1661 276.565 63.0995 276.565 77.4995C276.565 87.7661 279.898 95.4995 286.965 101.633C289.632 104.033 300.298 110.033 310.698 114.966C322.565 120.566 331.365 125.633 334.298 128.699C350.965 145.366 336.432 173.633 311.365 173.499C298.432 173.366 288.432 166.833 283.898 155.099C281.498 149.233 279.632 148.433 273.365 150.833C269.232 152.299 269.098 154.833 272.432 162.433C276.565 171.366 285.098 179.633 293.632 182.966C304.432 186.966 322.298 186.166 331.898 181.233C348.698 172.433 357.632 154.566 353.898 136.966C350.965 122.699 342.032 114.699 315.898 103.233C306.165 98.9661 299.365 94.9661 295.632 91.3661C290.165 86.2995 289.898 85.4995 289.898 78.5661C289.898 65.3661 299.632 56.1661 313.632 56.1661C322.432 56.1661 327.898 58.4328 333.765 64.6995C336.298 67.3661 339.098 69.4995 339.765 69.4995C340.565 69.4995 342.965 68.0328 345.232 66.2995L349.098 63.0995L344.165 57.0995C337.098 48.4328 329.098 44.9661 315.232 44.4328C305.498 44.1661 302.965 44.5661 297.232 47.2328Z" fill="white"/>
<path d="M28.1651 46.4328C27.6318 46.8328 27.2318 77.7661 27.2318 115.099V182.833H33.8984H40.5651V129.499C40.5651 100.166 41.0984 76.1661 41.6318 76.1661C42.8318 76.1661 50.5651 84.0328 105.765 141.499C127.232 163.899 145.898 182.299 147.365 182.566C149.765 182.966 149.898 181.233 149.898 115.099V47.0994L144.432 46.5661C141.498 46.2994 138.698 46.5661 138.432 47.0994C138.032 47.7661 137.765 71.8994 137.765 100.833C137.898 129.633 137.365 153.633 136.698 154.033C136.165 154.433 131.765 150.699 127.098 145.766C122.432 140.833 104.832 122.433 87.8984 104.833C28.1651 42.5661 30.1651 44.4328 28.1651 46.4328Z" fill="white"/>
<path d="M181.365 47.6328C180.165 50.6995 180.432 181.233 181.632 182.033C182.165 182.3 198.165 182.833 217.232 183.1L251.898 183.5V177.5V170.7H218.965C218.965 170.7 196.965 171.766 195.232 170.033C194.298 169.1 194.032 158.7 194.165 142.033L194.565 115.5L222.565 114.833L250.565 114.166V108.166V102.166L222.565 101.5L194.565 100.833L194.165 80.9662C193.898 67.4995 194.298 60.5662 195.365 59.3662C196.565 57.8995 202.698 57.4995 224.832 57.4995H252.698L252.298 51.7662L251.898 46.1662L217.098 45.7662C186.165 45.4995 182.165 45.6328 181.365 47.6328Z" fill="white"/>
<path d="M362.432 47.3662C362.032 48.4328 361.898 50.9662 362.165 53.0995L362.565 56.8328L379.232 57.4995L395.898 58.1662L396.565 120.833L397.232 183.5H403.232H409.232L409.632 121.633C409.898 74.0328 410.298 59.3662 411.632 58.5662C412.432 58.0328 420.298 57.4995 428.965 57.4995H444.698L444.298 51.7662L443.898 46.1662L403.498 45.7662C369.498 45.4995 363.098 45.7662 362.432 47.3662Z" fill="white"/>
<path d="M291.659 120.883C283.259 124.616 265.392 133.949 258.459 138.483C256.326 139.816 254.726 139.816 249.792 138.083C246.592 137.016 241.126 135.683 237.792 135.149C232.459 134.483 231.526 133.683 229.392 129.283C228.192 126.616 226.326 124.216 225.392 124.216C224.592 124.083 221.659 123.816 219.126 123.683C216.592 123.549 212.992 123.016 211.126 122.483C208.059 121.549 208.059 121.683 210.059 123.416C212.459 125.283 217.792 140.216 217.792 144.883C217.792 149.016 222.592 155.549 228.992 160.083C232.859 162.883 228.222 164.422 226.98 166.009C223.305 168.574 221.164 170.93 222.097 170.93C222.897 170.93 228.514 167.125 232.45 163.168C232.935 162.68 239.449 171.062 240.215 170.93C241.286 170.581 234.329 162.556 235.205 162.483C235.719 162.483 237.094 162.467 238.642 162.483C241.511 162.512 245.099 162.569 245.792 162.483L248.64 160.627L251.792 158.216L255.659 154.883L257.818 150.164C259.404 144.591 261.926 143.283 271.259 138.349C287.259 129.816 290.726 127.683 293.259 125.149C294.726 123.683 297.659 121.016 299.926 119.416C305.259 115.416 302.859 115.816 291.659 120.883Z" fill="white"/>
<path d="M60.6455 5.89515C60.42 6.47133 60.4701 30.9963 60.6956 31.1466C60.7958 31.1967 63.8019 31.2969 67.3842 31.347L73.8975 31.4221V30.2948V29.0172H67.7099C67.7099 29.0172 63.5765 29.2176 63.2508 28.892C63.0755 28.7166 63.0253 26.7626 63.0504 23.6313L63.1256 18.6461L68.3863 18.5209L73.647 18.3956V17.2683V16.141L68.3863 16.0158L63.1256 15.8905L63.0504 12.1579C63.0003 9.62775 63.0755 8.3251 63.2759 8.09964C63.5013 7.82408 64.6537 7.74892 68.8121 7.74892H74.0478L73.9726 6.67173L73.8975 5.61959L67.3592 5.54444C61.5473 5.49434 60.7958 5.51939 60.6455 5.89515Z" fill="white"/>
<path d="M22.3102 5.85209C22.2328 6.05846 22.207 6.54858 22.2586 6.96131L22.336 7.68359L25.5605 7.81257L28.7849 7.94155L28.9139 20.0656L29.0429 32.1896H30.2037H31.3645L31.4419 20.2203C31.4935 11.0112 31.5709 8.17371 31.8288 8.01894C31.9836 7.91575 33.5055 7.81257 35.1823 7.81257H38.2262L38.1488 6.70335L38.0714 5.61993L30.2553 5.54254C23.6774 5.49095 22.4392 5.54254 22.3102 5.85209Z" fill="white"/>
<path d="M41.4176 5.61993C41.3402 5.8263 41.4176 7.94155 41.4176 7.94155L41.5466 20.0656L41.6756 32.1896H42.8364H43.9972L44.0746 20.2203C44.2294 20.1172 55.7423 20.2203 55.7423 20.2203V17.6163H44.0746L43.9972 5.61993H41.4176Z" fill="white"/>
<path d="M55.7423 17.6163V5.61993H53.2572V18.9048V32.1896H55.7423V20.2203V17.6163Z" fill="white"/>
</svg>
